# xmcd CD database file
#
# Track frame offsets:
#	150
#	13499
#	32632
#	48035
#
# Disc length: 948 seconds
#
# Revision: 0
# Processed by: cddbd v1.5PL3 Copyright (c) Steve Scherf et al.
# Submitted via: CDex 1.50
#
DISCID=2903b204
DTITLE=TOBACCO JUICE - スモーキーラム
DYEAR=2002
DGENRE=Rock
TTITLE0=スモーキーラム
TTITLE1=ピカピカサンセットレインボーブルース
TTITLE2=プカプカプーカ
TTITLE3=ブルースブルーベリー
EXTD=YEAR: 2002
EXTT0=
EXTT1=
EXTT2=
EXTT3=
PLAYORDER=
